<?xml version="1.0" encoding="utf-8"?>
<!-- Generator: Adobe Illustrator 27.9.0, SVG Export Plug-In . SVG Version: 6.00 Build 0)  -->
<svg version="1.1" xmlns="http://www.w3.org/2000/svg" xmlns:xlink="http://www.w3.org/1999/xlink" x="0px" y="0px"
	 viewBox="0 0 4000 4000" style="enable-background:new 0 0 4000 4000;" xml:space="preserve">
<style type="text/css">
	
		.st0{clip-path:url(#SVGID_00000118369678438689877080000006803738769802170756_);fill:url(#SVGID_00000057139224564204833530000009550793928188212156_);}
	.st1{fill:none;}
	.st2{fill:url(#SVGID_00000024716576535354548080000002644084261745600187_);}
	.st3{fill:url(#SVGID_00000064352012930740948140000003663548062158890138_);}
	
		.st4{clip-path:url(#SVGID_00000025401439141466310790000011662700725457299626_);fill:url(#SVGID_00000075883128492449555360000011895369980143974554_);}
	
		.st5{clip-path:url(#SVGID_00000120525144333662629720000017103865116795927943_);fill:url(#SVGID_00000072967136499232276020000017837809640743079603_);}
</style>
<g id="Layer_1">
	<g>
		<g>
			<defs>
				<rect id="SVGID_1_" x="1967.5" y="2423.69" width="65" height="199"/>
			</defs>
			<clipPath id="SVGID_00000124878520582490725380000013139779806246492078_">
				<use xlink:href="#SVGID_1_"  style="overflow:visible;"/>
			</clipPath>
			
				<linearGradient id="SVGID_00000058549245070321663880000005213249235872346551_" gradientUnits="userSpaceOnUse" x1="2000" y1="2824.6885" x2="2000" y2="2351.6885">
				<stop  offset="0" style="stop-color:#6317AC"/>
				<stop  offset="1" style="stop-color:#6E1BB4"/>
			</linearGradient>
			
				<rect x="1973" y="2351.69" style="clip-path:url(#SVGID_00000124878520582490725380000013139779806246492078_);fill:url(#SVGID_00000058549245070321663880000005213249235872346551_);" width="54" height="473"/>
		</g>
		<path class="st1" d="M2000,1322.48c374.18,0,677.52,303.33,677.52,677.52s-303.33,677.52-677.52,677.52
			s-677.52-303.33-677.52-677.52S1625.82,1322.48,2000,1322.48z M1377.69,2000c0,343.69,278.62,622.31,622.31,622.31
			s622.31-278.62,622.31-622.31s-278.62-622.31-622.31-622.31S1377.69,1656.31,1377.69,2000z"/>
		
			<linearGradient id="SVGID_00000148657813272281335250000012938475539871817879_" gradientUnits="userSpaceOnUse" x1="1651.0011" y1="2580.8318" x2="2348.999" y2="1419.1682">
			<stop  offset="0" style="stop-color:#5E17A8"/>
			<stop  offset="1" style="stop-color:#C735F7"/>
		</linearGradient>
		<path style="fill:url(#SVGID_00000148657813272281335250000012938475539871817879_);" d="M2677.52,2000
			c0,374.18-303.33,677.52-677.52,677.52s-677.52-303.33-677.52-677.52s303.33-677.52,677.52-677.52S2677.52,1625.82,2677.52,2000z
			 M2000,1377.69c-343.69,0-622.31,278.62-622.31,622.31s278.62,622.31,622.31,622.31s622.31-278.62,622.31-622.31
			S2343.69,1377.69,2000,1377.69z"/>
		
			<linearGradient id="SVGID_00000165932595099399514330000008634398689212284570_" gradientUnits="userSpaceOnUse" x1="2000" y1="2427.4705" x2="2000" y2="1527.4111">
			<stop  offset="0" style="stop-color:#FF0087"/>
			<stop  offset="1" style="stop-color:#F8D82E"/>
		</linearGradient>
		<path style="fill:url(#SVGID_00000165932595099399514330000008634398689212284570_);" d="M2201.81,1723.69
			c43.57,75.48,68.49,162.92,68.49,256.04s-24.93,180.56-68.49,256.04c-45.1,78.13-110.11,143.23-188.04,188.32l-13.64,3.38
			l-13.9-3.38c-77.94-45.08-142.94-110.18-188.04-188.32c-43.57-75.48-68.49-162.92-68.49-256.04s24.93-180.56,68.49-256.04
			c45.1-78.13,110.11-143.23,188.04-188.32l13.77-7.96l13.77,7.96C2091.7,1580.46,2156.71,1645.56,2201.81,1723.69 M2215.24,1979.73
			c0-83.44-22.19-161.54-60.97-228.72c-37.52-65-90.64-119.96-154.27-159.8c-63.64,39.84-116.75,94.8-154.27,159.8
			c-38.78,67.18-60.97,145.28-60.97,228.72c0,83.44,22.19,161.54,60.97,228.72c37.52,65,90.64,119.96,154.27,159.81
			c63.63-39.84,116.75-94.8,154.27-159.81C2193.05,2141.27,2215.24,2063.17,2215.24,1979.73z"/>
		<g>
			<defs>
				<path id="SVGID_00000106860569072001843890000007330544476159653002_" d="M2134.41,1746.15
					c-63.46,44.76-116.38,106.29-151.32,181.87c-34.98,75.67-47.6,155.88-40.59,233.19c6.79,74.85,31.98,147.11,73.09,210.02
					c334.07-36.25,371.41-222.32,353.61-416.54c-4.59-50.04-12.78-101.4-20.7-151.04c-7.58-47.49-14.91-93.44-18.81-136.29
					C2259.62,1678.13,2192.62,1705.1,2134.41,1746.15 M2380.94,1606.7l1.48,28.53c2.5,48.31,11.22,102.93,20.29,159.82
					c8.03,50.32,16.34,102.38,21.13,154.7c20.67,225.54-27.74,441.43-423.84,477.73l-15.33-2.45l-5.14-9.06
					c-51.83-73.63-83.52-159.99-91.67-249.81c-7.87-86.73,6.22-176.57,45.32-261.15c39.15-84.68,98.46-153.64,169.61-203.81
					c73.57-51.89,159.9-83.65,249.73-91.89L2380.94,1606.7z"/>
			</defs>
			<clipPath id="SVGID_00000099642345847330341680000009483851999179190169_">
				<use xlink:href="#SVGID_00000106860569072001843890000007330544476159653002_"  style="overflow:visible;"/>
			</clipPath>
			
				<linearGradient id="SVGID_00000133525258304009549330000016703923972754734521_" gradientUnits="userSpaceOnUse" x1="2298.6189" y1="2509.458" x2="1824.3165" y2="1578.587" gradientTransform="matrix(-1 0 0 1 4210 0)">
				<stop  offset="0" style="stop-color:#5E17A8"/>
				<stop  offset="1" style="stop-color:#C735F7"/>
			</linearGradient>
			
				<rect x="1880" y="1606.7" style="clip-path:url(#SVGID_00000099642345847330341680000009483851999179190169_);fill:url(#SVGID_00000133525258304009549330000016703923972754734521_);" width="564.52" height="820.77"/>
		</g>
		<g>
			<defs>
				<path id="SVGID_00000083781850734903176690000014131559266514976412_" d="M1865.59,1746.15
					c-58.21-41.05-125.21-68.02-195.28-78.8c-3.9,42.85-11.24,88.8-18.81,136.29c-7.92,49.64-16.12,101-20.7,151.04
					c-17.8,194.22,19.54,380.29,353.61,416.54c41.11-62.91,66.3-135.17,73.09-210.02c7.01-77.31-5.6-157.51-40.59-233.19
					C1981.97,1852.44,1929.05,1790.91,1865.59,1746.15 M1647.48,1609.3c89.82,8.23,176.15,40,249.73,91.89
					c71.15,50.18,130.46,119.14,169.61,203.81c39.1,84.58,53.19,174.42,45.32,261.15c-8.15,89.82-39.84,176.17-91.67,249.81
					l-5.14,9.06l-15.33,2.45c-396.1-36.31-444.52-252.19-423.84-477.73c4.79-52.31,13.1-104.38,21.13-154.7
					c9.08-56.89,17.79-111.5,20.29-159.82l1.48-28.53L1647.48,1609.3z"/>
			</defs>
			<clipPath id="SVGID_00000091013416593304007070000005279839065547475903_">
				<use xlink:href="#SVGID_00000083781850734903176690000014131559266514976412_"  style="overflow:visible;"/>
			</clipPath>
			
				<linearGradient id="SVGID_00000021116400036181032220000001328996124405547432_" gradientUnits="userSpaceOnUse" x1="2088.574" y1="2509.4741" x2="1614.3566" y2="1578.5729">
				<stop  offset="0" style="stop-color:#5E17A8"/>
				<stop  offset="1" style="stop-color:#C735F7"/>
			</linearGradient>
			
				<rect x="1555.48" y="1606.7" style="clip-path:url(#SVGID_00000091013416593304007070000005279839065547475903_);fill:url(#SVGID_00000021116400036181032220000001328996124405547432_);" width="564.52" height="820.77"/>
		</g>
	</g>
</g>
<g id="Layer_2">
</g>
</svg>
