<?xml version="1.0" encoding="utf-8"?>
<!-- Generator: Adobe Illustrator 27.9.0, SVG Export Plug-In . SVG Version: 6.00 Build 0)  -->
<svg version="1.1" id="Layer_1" xmlns="http://www.w3.org/2000/svg" xmlns:xlink="http://www.w3.org/1999/xlink" x="0px" y="0px"
	 viewBox="0 0 1388.98 1388.98" style="enable-background:new 0 0 1388.98 1388.98;" xml:space="preserve">
<style type="text/css">
	
		.st0{clip-path:url(#SVGID_00000018929876075112938380000012294198450597373084_);fill:url(#SVGID_00000013183809978412735850000001513026475270502333_);}
	.st1{fill:none;}
	.st2{fill:url(#SVGID_00000129189205457583365900000011337941913707298695_);}
	.st3{fill:url(#SVGID_00000145749174907320700760000017367311640188525489_);}
	
		.st4{clip-path:url(#SVGID_00000155858489678272093770000017821356765125512330_);fill:url(#SVGID_00000023989261725154961050000001574588499262149018_);}
	
		.st5{clip-path:url(#SVGID_00000121980289057059818160000016645062492194166676_);fill:url(#SVGID_00000026851935581219634010000015604700312895698328_);}
</style>
<g>
	<g>
		<defs>
			<rect id="SVGID_1_" x="663.89" y="1093.34" width="61.19" height="187.33"/>
		</defs>
		<clipPath id="SVGID_00000022557172833506786120000005632054958978627990_">
			<use xlink:href="#SVGID_1_"  style="overflow:visible;"/>
		</clipPath>
		
			<linearGradient id="SVGID_00000157276182917257552100000011486763782831471284_" gradientUnits="userSpaceOnUse" x1="694.4882" y1="1470.828" x2="694.4882" y2="1025.5583">
			<stop  offset="0" style="stop-color:#6317AC"/>
			<stop  offset="1" style="stop-color:#6E1BB4"/>
		</linearGradient>
		
			<rect x="669.07" y="1025.56" style="clip-path:url(#SVGID_00000022557172833506786120000005632054958978627990_);fill:url(#SVGID_00000157276182917257552100000011486763782831471284_);" width="50.83" height="445.27"/>
	</g>
	<path class="st1" d="M694.49,56.69c352.24,0,637.8,285.55,637.8,637.8s-285.55,637.8-637.8,637.8s-637.8-285.55-637.8-637.8
		S342.24,56.69,694.49,56.69z M108.66,694.49c0,323.54,262.28,585.83,585.83,585.83s585.83-262.28,585.83-585.83
		s-262.28-585.83-585.83-585.83S108.66,370.94,108.66,694.49z"/>
	
		<linearGradient id="SVGID_00000011745393539897281770000000360286943084757655_" gradientUnits="userSpaceOnUse" x1="365.9499" y1="1241.2678" x2="1023.0265" y2="147.7086">
		<stop  offset="0" style="stop-color:#5E17A8"/>
		<stop  offset="1" style="stop-color:#C735F7"/>
	</linearGradient>
	<path style="fill:url(#SVGID_00000011745393539897281770000000360286943084757655_);" d="M1332.28,694.49
		c0,352.24-285.55,637.8-637.8,637.8s-637.8-285.55-637.8-637.8s285.55-637.8,637.8-637.8S1332.28,342.24,1332.28,694.49z
		 M694.49,108.66c-323.54,0-585.83,262.28-585.83,585.83s262.28,585.83,585.83,585.83s585.83-262.28,585.83-585.83
		S1018.03,108.66,694.49,108.66z"/>
	
		<linearGradient id="SVGID_00000004517711905588674570000013687782671414559927_" gradientUnits="userSpaceOnUse" x1="694.4882" y1="1096.8975" x2="694.4882" y2="249.6056">
		<stop  offset="0" style="stop-color:#FF0087"/>
		<stop  offset="1" style="stop-color:#F8D82E"/>
	</linearGradient>
	<path style="fill:url(#SVGID_00000004517711905588674570000013687782671414559927_);" d="M884.47,434.38
		c41.01,71.05,64.48,153.37,64.48,241.03s-23.47,169.98-64.48,241.03c-42.46,73.55-103.65,134.84-177.02,177.28l-12.84,3.19
		l-13.08-3.19c-73.37-42.44-134.56-103.72-177.02-177.28c-41.01-71.05-64.48-153.37-64.48-241.03s23.47-169.98,64.48-241.03
		c42.46-73.55,103.65-134.84,177.02-177.28l12.96-7.5l12.96,7.5C780.81,299.54,842.01,360.83,884.47,434.38 M897.11,675.41
		c0-78.55-20.89-152.07-57.39-215.31c-35.32-61.19-85.32-112.93-145.23-150.44c-59.9,37.51-109.91,89.24-145.23,150.44
		c-36.5,63.24-57.39,136.76-57.39,215.31s20.89,152.07,57.39,215.31c35.32,61.19,85.32,112.93,145.23,150.44
		c59.9-37.51,109.91-89.24,145.23-150.44C876.22,827.48,897.11,753.95,897.11,675.41z"/>
	<g>
		<defs>
			<path id="SVGID_00000178201763189368713990000001317749623608229003_" d="M821.02,455.52
				c-59.74,42.13-109.56,100.06-142.45,171.21c-32.93,71.24-44.81,146.74-38.21,219.52c6.39,70.46,30.11,138.48,68.81,197.71
				c314.48-34.13,349.64-209.29,332.88-392.12c-4.32-47.11-12.03-95.46-19.49-142.19c-7.13-44.71-14.04-87.96-17.71-128.3
				C938.89,391.49,875.82,416.87,821.02,455.52 M1053.1,324.24l1.39,26.85c2.35,45.48,10.56,96.89,19.1,150.45
				c7.56,47.37,15.38,96.38,19.89,145.63c19.46,212.32-26.12,415.55-399,449.72l-14.43-2.3l-4.84-8.53
				c-48.79-69.31-78.62-150.61-86.29-235.16c-7.41-81.65,5.85-166.22,42.66-245.84c36.85-79.71,92.69-144.63,159.66-191.87
				c69.26-48.85,150.53-78.75,235.08-86.5L1053.1,324.24z"/>
		</defs>
		<clipPath id="SVGID_00000096771718211565207500000007041350574674679684_">
			<use xlink:href="#SVGID_00000178201763189368713990000001317749623608229003_"  style="overflow:visible;"/>
		</clipPath>
		
			<linearGradient id="SVGID_00000073720858847340715270000011730301603474439299_" gradientUnits="userSpaceOnUse" x1="987.9117" y1="1174.0785" x2="541.416" y2="297.7812" gradientTransform="matrix(-1 0 0 1 1598.9763 0)">
			<stop  offset="0" style="stop-color:#5E17A8"/>
			<stop  offset="1" style="stop-color:#C735F7"/>
		</linearGradient>
		
			<rect x="581.52" y="324.24" style="clip-path:url(#SVGID_00000096771718211565207500000007041350574674679684_);fill:url(#SVGID_00000073720858847340715270000011730301603474439299_);" width="531.42" height="772.65"/>
	</g>
	<g>
		<defs>
			<path id="SVGID_00000137124844678151147040000000439553564495146406_" d="M567.95,455.52c-54.8-38.65-117.87-64.03-183.83-74.18
				c-3.67,40.34-10.58,83.6-17.71,128.3c-7.46,46.73-15.17,95.07-19.49,142.19c-16.76,182.83,18.4,357.99,332.88,392.12
				c38.7-59.22,62.42-127.24,68.81-197.71c6.6-72.78-5.28-148.28-38.21-219.52C677.51,555.58,627.69,497.65,567.95,455.52
				 M362.64,326.7c84.55,7.75,165.82,37.65,235.08,86.5c66.97,47.23,122.81,112.15,159.66,191.87
				c36.81,79.62,50.07,164.19,42.66,245.84c-7.67,84.55-37.5,165.85-86.29,235.16l-4.84,8.53l-14.43,2.3
				c-372.88-34.18-418.46-237.41-399-449.72c4.51-49.25,12.34-98.26,19.89-145.63c8.55-53.55,16.75-104.97,19.1-150.45l1.39-26.85
				L362.64,326.7z"/>
		</defs>
		<clipPath id="SVGID_00000004540410526455653940000001403318034272841631_">
			<use xlink:href="#SVGID_00000137124844678151147040000000439553564495146406_"  style="overflow:visible;"/>
		</clipPath>
		
			<linearGradient id="SVGID_00000134245828301522358600000003046337665373058991_" gradientUnits="userSpaceOnUse" x1="777.8694" y1="1174.0935" x2="331.4537" y2="297.7679">
			<stop  offset="0" style="stop-color:#5E17A8"/>
			<stop  offset="1" style="stop-color:#C735F7"/>
		</linearGradient>
		
			<rect x="276.03" y="324.24" style="clip-path:url(#SVGID_00000004540410526455653940000001403318034272841631_);fill:url(#SVGID_00000134245828301522358600000003046337665373058991_);" width="531.42" height="772.65"/>
	</g>
</g>
</svg>
